<svg width="35" height="35" viewBox="0 0 35 35" fill="none" xmlns="http://www.w3.org/2000/svg">
<circle cx="17.5" cy="17.5" r="17.5" fill="#262626"/>
<path d="M24 8.83333C24 7.82133 23.168 7 22.1429 7H12.8571C11.832 7 11 7.82133 11 8.83333V27.1667C11 28.1787 11.832 29 12.8571 29H22.1429C23.168 29 24 28.1787 24 27.1667V8.83333ZM16.1071 8.83333H18.8929C19.1491 8.83333 19.3571 9.03867 19.3571 9.29167C19.3571 9.54467 19.1491 9.75 18.8929 9.75H16.1071C15.8509 9.75 15.6429 9.54467 15.6429 9.29167C15.6429 9.03867 15.8509 8.83333 16.1071 8.83333ZM17.5 27.1667C16.9865 27.1667 16.5714 26.756 16.5714 26.25C16.5714 25.744 16.9865 25.3333 17.5 25.3333C18.0126 25.3333 18.4276 25.744 18.4276 26.25C18.4276 26.756 18.0126 27.1667 17.5 27.1667ZM22.1429 24.4167H12.8571V11.5613H22.1429V24.4167Z" fill="white"/>
</svg>
