<svg width="236" height="75" viewBox="0 0 236 75" fill="none" xmlns="http://www.w3.org/2000/svg">
<path d="M88.3987 41L79.5787 15.24H82.4487L90.2187 38.095L97.9537 15.24H100.789L91.9687 41H88.3987ZM105.053 18.985C104.679 18.985 104.493 18.7983 104.493 18.425V15.695C104.493 15.3217 104.679 15.135 105.053 15.135H107.013C107.199 15.135 107.328 15.1933 107.398 15.31C107.491 15.4033 107.538 15.5317 107.538 15.695V18.425C107.538 18.7983 107.363 18.985 107.013 18.985H105.053ZM104.633 41V22.31H107.398V41H104.633ZM118.788 41.21C117.248 41.21 115.977 40.8833 114.973 40.23C113.993 39.5533 113.258 38.5267 112.768 37.15C112.302 35.75 112.068 33.965 112.068 31.795C112.068 29.485 112.302 27.6183 112.768 26.195C113.235 24.7483 113.982 23.6983 115.008 23.045C116.035 22.3917 117.412 22.065 119.138 22.065C120.188 22.065 121.215 22.1817 122.218 22.415C123.222 22.6483 124.108 22.905 124.878 23.185V14.295H127.643V41H125.403L124.878 39.11C124.528 39.4133 124.003 39.7283 123.303 40.055C122.627 40.3817 121.88 40.6617 121.063 40.895C120.27 41.105 119.512 41.21 118.788 41.21ZM119.593 38.935C120.667 38.935 121.635 38.7717 122.498 38.445C123.385 38.095 124.178 37.7333 124.878 37.36V25.145C124.038 24.8883 123.233 24.6783 122.463 24.515C121.693 24.3283 120.83 24.235 119.873 24.235C118.683 24.235 117.715 24.4567 116.968 24.9C116.222 25.3433 115.673 26.1133 115.323 27.21C114.997 28.2833 114.833 29.7767 114.833 31.69C114.833 33.4167 114.985 34.8167 115.288 35.89C115.615 36.9633 116.128 37.745 116.828 38.235C117.528 38.7017 118.45 38.935 119.593 38.935ZM136.505 41.21C135.128 41.21 133.997 40.8017 133.11 39.985C132.223 39.1683 131.78 38.0133 131.78 36.52V35.19C131.78 33.72 132.258 32.53 133.215 31.62C134.195 30.71 135.665 30.255 137.625 30.255H143.96V27.945C143.96 27.175 143.82 26.5217 143.54 25.985C143.283 25.425 142.805 24.9933 142.105 24.69C141.428 24.3867 140.437 24.235 139.13 24.235H133.32V22.59C134.137 22.45 135.082 22.3217 136.155 22.205C137.252 22.0883 138.535 22.03 140.005 22.03C141.522 22.0067 142.782 22.1933 143.785 22.59C144.788 22.9867 145.523 23.6167 145.99 24.48C146.48 25.32 146.725 26.4283 146.725 27.805V41H144.59L144.065 38.865C143.972 38.9583 143.68 39.1217 143.19 39.355C142.723 39.5883 142.117 39.8567 141.37 40.16C140.647 40.44 139.853 40.685 138.99 40.895C138.15 41.105 137.322 41.21 136.505 41.21ZM137.66 39.145C138.08 39.1683 138.558 39.1217 139.095 39.005C139.632 38.8883 140.18 38.76 140.74 38.62C141.3 38.4567 141.813 38.2933 142.28 38.13C142.77 37.9667 143.167 37.8267 143.47 37.71C143.773 37.5933 143.937 37.535 143.96 37.535V31.655L138.255 31.9C136.925 31.9467 135.968 32.2733 135.385 32.88C134.825 33.4867 134.545 34.2683 134.545 35.225V36.065C134.545 36.8117 134.697 37.4183 135 37.885C135.327 38.3283 135.723 38.6433 136.19 38.83C136.68 39.0167 137.17 39.1217 137.66 39.145ZM151.937 41V14.295H154.702V29.765H157.362L163.067 22.31H166.007L159.427 31.025L166.427 41H163.487L157.257 32.25H154.702V41H151.937ZM177.062 41.21C175.709 41.21 174.519 41.07 173.492 40.79C172.489 40.51 171.649 40.02 170.972 39.32C170.296 38.62 169.794 37.6517 169.467 36.415C169.141 35.155 168.977 33.5567 168.977 31.62C168.977 29.66 169.141 28.0617 169.467 26.825C169.794 25.565 170.296 24.5967 170.972 23.92C171.649 23.22 172.489 22.7417 173.492 22.485C174.519 22.205 175.709 22.065 177.062 22.065C178.416 22.065 179.594 22.205 180.597 22.485C181.624 22.765 182.476 23.255 183.152 23.955C183.829 24.6317 184.331 25.6 184.657 26.86C185.007 28.0967 185.182 29.6833 185.182 31.62C185.182 33.58 185.007 35.19 184.657 36.45C184.331 37.6867 183.829 38.655 183.152 39.355C182.499 40.0317 181.659 40.51 180.632 40.79C179.606 41.07 178.416 41.21 177.062 41.21ZM177.062 38.935C177.926 38.935 178.684 38.8533 179.337 38.69C180.014 38.5267 180.574 38.2 181.017 37.71C181.461 37.22 181.799 36.485 182.032 35.505C182.266 34.525 182.382 33.23 182.382 31.62C182.382 29.9867 182.266 28.6917 182.032 27.735C181.799 26.7783 181.461 26.055 181.017 25.565C180.574 25.075 180.014 24.7483 179.337 24.585C178.684 24.4217 177.926 24.34 177.062 24.34C176.176 24.34 175.406 24.4217 174.752 24.585C174.099 24.7483 173.551 25.075 173.107 25.565C172.664 26.055 172.326 26.7783 172.092 27.735C171.859 28.6917 171.742 29.9867 171.742 31.62C171.742 33.23 171.859 34.525 172.092 35.505C172.326 36.485 172.664 37.22 173.107 37.71C173.551 38.2 174.099 38.5267 174.752 38.69C175.406 38.8533 176.176 38.935 177.062 38.935ZM194.199 41L187.164 22.31H189.999L195.809 38.41L201.794 22.31H204.594L197.349 41H194.199ZM208.344 18.985C207.97 18.985 207.784 18.7983 207.784 18.425V15.695C207.784 15.3217 207.97 15.135 208.344 15.135H210.304C210.49 15.135 210.619 15.1933 210.689 15.31C210.782 15.4033 210.829 15.5317 210.829 15.695V18.425C210.829 18.7983 210.654 18.985 210.304 18.985H208.344ZM207.924 41V22.31H210.689V41H207.924ZM222.814 41.21C221.764 41.21 220.784 41.07 219.874 40.79C218.964 40.51 218.171 40.02 217.494 39.32C216.818 38.62 216.293 37.6517 215.919 36.415C215.546 35.1783 215.359 33.6033 215.359 31.69C215.359 29.7533 215.534 28.1667 215.884 26.93C216.234 25.67 216.736 24.69 217.389 23.99C218.043 23.29 218.836 22.8 219.769 22.52C220.703 22.24 221.741 22.1 222.884 22.1C223.818 22.1 224.833 22.1467 225.929 22.24C227.026 22.31 228.076 22.4267 229.079 22.59V24.235H223.619C222.429 24.235 221.426 24.4333 220.609 24.83C219.793 25.2267 219.174 25.9733 218.754 27.07C218.334 28.1433 218.124 29.7067 218.124 31.76C218.124 33.7433 218.346 35.26 218.789 36.31C219.233 37.36 219.863 38.0833 220.679 38.48C221.496 38.8533 222.488 39.04 223.654 39.04H229.359V40.65C228.823 40.7433 228.193 40.8367 227.469 40.93C226.769 41.0233 226.023 41.0933 225.229 41.14C224.436 41.1867 223.631 41.21 222.814 41.21ZM221.694 18.915L225.334 14.155H227.679L223.304 18.915H221.694Z" fill="#262626"/>
<path d="M87.4689 53.8333L88.5609 44.2653H89.6139L92.1619 52.5333L94.6579 44.2653H95.7239L96.8419 53.8333H95.8409L94.8789 45.4483L95.0479 45.4743L92.6299 53.8333H91.6809L89.1979 45.4873L89.3929 45.4613L88.4699 53.8333H87.4689ZM101.095 53.9113C100.367 53.9113 99.7911 53.803 99.3664 53.5863C98.9504 53.3696 98.6514 53.0013 98.4694 52.4813C98.2874 51.9613 98.1964 51.2506 98.1964 50.3493C98.1964 49.4306 98.2874 48.7156 98.4694 48.2043C98.6601 47.6843 98.9678 47.3203 99.3924 47.1123C99.8171 46.9043 100.389 46.8003 101.108 46.8003C101.724 46.8003 102.222 46.8696 102.603 47.0083C102.993 47.147 103.279 47.3853 103.461 47.7233C103.652 48.0526 103.747 48.512 103.747 49.1013C103.747 49.5086 103.665 49.838 103.5 50.0893C103.344 50.332 103.115 50.5096 102.811 50.6223C102.517 50.7263 102.166 50.7783 101.758 50.7783H99.2234C99.2321 51.3416 99.2928 51.7966 99.4054 52.1433C99.5181 52.4813 99.7218 52.7283 100.016 52.8843C100.32 53.0316 100.762 53.1053 101.342 53.1053H103.578V53.7293C103.18 53.7813 102.79 53.8246 102.408 53.8593C102.027 53.894 101.589 53.9113 101.095 53.9113ZM99.2104 50.1023H101.68C102.07 50.1023 102.356 50.033 102.538 49.8943C102.729 49.747 102.824 49.487 102.824 49.1143C102.824 48.7156 102.764 48.408 102.642 48.1913C102.53 47.966 102.348 47.81 102.096 47.7233C101.854 47.628 101.524 47.5803 101.108 47.5803C100.623 47.5803 100.242 47.654 99.9644 47.8013C99.6871 47.94 99.4921 48.1913 99.3794 48.5553C99.2668 48.9193 99.2104 49.435 99.2104 50.1023ZM107.726 53.9113C107.154 53.9113 106.681 53.79 106.309 53.5473C105.945 53.296 105.672 52.9146 105.49 52.4033C105.316 51.8833 105.23 51.2203 105.23 50.4143C105.23 49.5563 105.316 48.863 105.49 48.3343C105.663 47.797 105.94 47.407 106.322 47.1643C106.703 46.9216 107.214 46.8003 107.856 46.8003C108.246 46.8003 108.627 46.8436 109 46.9303C109.372 47.017 109.702 47.1123 109.988 47.2163V43.9143H111.015V53.8333H110.183L109.988 53.1313C109.858 53.244 109.663 53.361 109.403 53.4823C109.151 53.6036 108.874 53.7076 108.571 53.7943C108.276 53.8723 107.994 53.9113 107.726 53.9113ZM108.025 53.0663C108.423 53.0663 108.783 53.0056 109.104 52.8843C109.433 52.7543 109.728 52.62 109.988 52.4813V47.9443C109.676 47.849 109.377 47.771 109.091 47.7103C108.805 47.641 108.484 47.6063 108.129 47.6063C107.687 47.6063 107.327 47.6886 107.05 47.8533C106.772 48.018 106.569 48.304 106.439 48.7113C106.317 49.11 106.257 49.6646 106.257 50.3753C106.257 51.0166 106.313 51.5366 106.426 51.9353C106.547 52.334 106.738 52.6243 106.998 52.8063C107.258 52.9796 107.6 53.0663 108.025 53.0663ZM116.614 45.6563C116.475 45.6563 116.406 45.587 116.406 45.4483V44.4343C116.406 44.2956 116.475 44.2263 116.614 44.2263H117.342C117.411 44.2263 117.459 44.248 117.485 44.2913C117.52 44.326 117.537 44.3736 117.537 44.4343V45.4483C117.537 45.587 117.472 45.6563 117.342 45.6563H116.614ZM116.458 53.8333V46.8913H117.485V53.8333H116.458ZM122.971 56.9143V46.8913H123.803L123.998 47.6063C124.154 47.4936 124.353 47.3766 124.596 47.2553C124.847 47.1253 125.116 47.017 125.402 46.9303C125.696 46.8436 125.987 46.8003 126.273 46.8003C126.723 46.8003 127.105 46.9 127.417 47.0993C127.737 47.29 127.997 47.55 128.197 47.8793C128.396 48.2086 128.539 48.5856 128.626 49.0103C128.712 49.435 128.756 49.8813 128.756 50.3493C128.756 51.1293 128.665 51.788 128.483 52.3253C128.309 52.854 128.041 53.2526 127.677 53.5213C127.313 53.79 126.845 53.9243 126.273 53.9243C125.883 53.9243 125.488 53.8636 125.09 53.7423C124.7 53.6123 124.336 53.452 123.998 53.2613V56.9143H122.971ZM125.987 53.0533C126.316 53.0533 126.611 52.971 126.871 52.8063C127.131 52.6416 127.339 52.3643 127.495 51.9743C127.651 51.5756 127.729 51.034 127.729 50.3493C127.729 49.6993 127.646 49.1793 127.482 48.7893C127.317 48.3906 127.105 48.1046 126.845 47.9313C126.585 47.7493 126.299 47.6583 125.987 47.6583C125.588 47.6583 125.22 47.7233 124.882 47.8533C124.552 47.9746 124.258 48.1046 123.998 48.2433V52.4943C124.301 52.659 124.622 52.7933 124.96 52.8973C125.306 53.0013 125.649 53.0533 125.987 53.0533ZM130.486 53.8333V46.8913H131.266L131.513 48.1003C131.825 47.7276 132.172 47.42 132.553 47.1773C132.943 46.9346 133.39 46.8133 133.892 46.8133C134.014 46.8133 134.126 46.8176 134.23 46.8263C134.343 46.835 134.447 46.8523 134.542 46.8783V47.9313C134.43 47.914 134.308 47.901 134.178 47.8923C134.048 47.875 133.918 47.8663 133.788 47.8663C133.468 47.8663 133.182 47.9053 132.93 47.9833C132.679 48.0613 132.441 48.1783 132.215 48.3343C131.99 48.4903 131.756 48.681 131.513 48.9063V53.8333H130.486ZM138.6 53.9113C138.097 53.9113 137.655 53.8593 137.274 53.7553C136.901 53.6513 136.589 53.4693 136.338 53.2093C136.087 52.9493 135.9 52.5896 135.779 52.1303C135.658 51.6623 135.597 51.0686 135.597 50.3493C135.597 49.6213 135.658 49.0276 135.779 48.5683C135.9 48.1003 136.087 47.7406 136.338 47.4893C136.589 47.2293 136.901 47.0516 137.274 46.9563C137.655 46.8523 138.097 46.8003 138.6 46.8003C139.103 46.8003 139.54 46.8523 139.913 46.9563C140.294 47.0603 140.611 47.2423 140.862 47.5023C141.113 47.7536 141.3 48.1133 141.421 48.5813C141.551 49.0406 141.616 49.63 141.616 50.3493C141.616 51.0773 141.551 51.6753 141.421 52.1433C141.3 52.6026 141.113 52.9623 140.862 53.2223C140.619 53.4736 140.307 53.6513 139.926 53.7553C139.545 53.8593 139.103 53.9113 138.6 53.9113ZM138.6 53.0663C138.921 53.0663 139.202 53.036 139.445 52.9753C139.696 52.9146 139.904 52.7933 140.069 52.6113C140.234 52.4293 140.359 52.1563 140.446 51.7923C140.533 51.4283 140.576 50.9473 140.576 50.3493C140.576 49.7426 140.533 49.2616 140.446 48.9063C140.359 48.551 140.234 48.2823 140.069 48.1003C139.904 47.9183 139.696 47.797 139.445 47.7363C139.202 47.6756 138.921 47.6453 138.6 47.6453C138.271 47.6453 137.985 47.6756 137.742 47.7363C137.499 47.797 137.296 47.9183 137.131 48.1003C136.966 48.2823 136.841 48.551 136.754 48.9063C136.667 49.2616 136.624 49.7426 136.624 50.3493C136.624 50.9473 136.667 51.4283 136.754 51.7923C136.841 52.1563 136.966 52.4293 137.131 52.6113C137.296 52.7933 137.499 52.9146 137.742 52.9753C137.985 53.036 138.271 53.0663 138.6 53.0663ZM143.503 45.6563C143.364 45.6563 143.295 45.587 143.295 45.4483V44.4343C143.295 44.2956 143.364 44.2263 143.503 44.2263H144.231C144.3 44.2263 144.348 44.248 144.374 44.2913C144.408 44.326 144.426 44.3736 144.426 44.4343V45.4483C144.426 45.587 144.361 45.6563 144.231 45.6563H143.503ZM143.347 53.8333V46.8913H144.374V53.8333H143.347ZM146.031 53.8333V53.0533L150.035 47.7363H145.927V46.8913H151.231V47.6713L147.214 52.9883H151.231V53.8333H146.031ZM154.651 53.8333L152.038 46.8913H153.091L155.249 52.8713L157.472 46.8913H158.512L155.821 53.8333H154.651ZM162.251 53.9113C161.749 53.9113 161.307 53.8593 160.925 53.7553C160.553 53.6513 160.241 53.4693 159.989 53.2093C159.738 52.9493 159.552 52.5896 159.43 52.1303C159.309 51.6623 159.248 51.0686 159.248 50.3493C159.248 49.6213 159.309 49.0276 159.43 48.5683C159.552 48.1003 159.738 47.7406 159.989 47.4893C160.241 47.2293 160.553 47.0516 160.925 46.9563C161.307 46.8523 161.749 46.8003 162.251 46.8003C162.754 46.8003 163.192 46.8523 163.564 46.9563C163.946 47.0603 164.262 47.2423 164.513 47.5023C164.765 47.7536 164.951 48.1133 165.072 48.5813C165.202 49.0406 165.267 49.63 165.267 50.3493C165.267 51.0773 165.202 51.6753 165.072 52.1433C164.951 52.6026 164.765 52.9623 164.513 53.2223C164.271 53.4736 163.959 53.6513 163.577 53.7553C163.196 53.8593 162.754 53.9113 162.251 53.9113ZM162.251 53.0663C162.572 53.0663 162.854 53.036 163.096 52.9753C163.348 52.9146 163.556 52.7933 163.72 52.6113C163.885 52.4293 164.011 52.1563 164.097 51.7923C164.184 51.4283 164.227 50.9473 164.227 50.3493C164.227 49.7426 164.184 49.2616 164.097 48.9063C164.011 48.551 163.885 48.2823 163.72 48.1003C163.556 47.9183 163.348 47.797 163.096 47.7363C162.854 47.6756 162.572 47.6453 162.251 47.6453C161.922 47.6453 161.636 47.6756 161.393 47.7363C161.151 47.797 160.947 47.9183 160.782 48.1003C160.618 48.2823 160.492 48.551 160.405 48.9063C160.319 49.2616 160.275 49.7426 160.275 50.3493C160.275 50.9473 160.319 51.4283 160.405 51.7923C160.492 52.1563 160.618 52.4293 160.782 52.6113C160.947 52.7933 161.151 52.9146 161.393 52.9753C161.636 53.036 161.922 53.0663 162.251 53.0663ZM169.247 53.9113C168.675 53.9113 168.203 53.79 167.83 53.5473C167.466 53.296 167.193 52.9146 167.011 52.4033C166.838 51.8833 166.751 51.2203 166.751 50.4143C166.751 49.5563 166.838 48.863 167.011 48.3343C167.184 47.797 167.462 47.407 167.843 47.1643C168.224 46.9216 168.736 46.8003 169.377 46.8003C169.767 46.8003 170.148 46.8436 170.521 46.9303C170.894 47.017 171.223 47.1123 171.509 47.2163V43.9143H172.536V53.8333H171.704L171.509 53.1313C171.379 53.244 171.184 53.361 170.924 53.4823C170.673 53.6036 170.395 53.7076 170.092 53.7943C169.797 53.8723 169.516 53.9113 169.247 53.9113ZM169.546 53.0663C169.945 53.0663 170.304 53.0056 170.625 52.8843C170.954 52.7543 171.249 52.62 171.509 52.4813V47.9443C171.197 47.849 170.898 47.771 170.612 47.7103C170.326 47.641 170.005 47.6063 169.65 47.6063C169.208 47.6063 168.848 47.6886 168.571 47.8533C168.294 48.018 168.09 48.304 167.96 48.7113C167.839 49.11 167.778 49.6646 167.778 50.3753C167.778 51.0166 167.834 51.5366 167.947 51.9353C168.068 52.334 168.259 52.6243 168.519 52.8063C168.779 52.9796 169.121 53.0663 169.546 53.0663ZM174.632 45.6563C174.493 45.6563 174.424 45.587 174.424 45.4483V44.4343C174.424 44.2956 174.493 44.2263 174.632 44.2263H175.36C175.429 44.2263 175.477 44.248 175.503 44.2913C175.537 44.326 175.555 44.3736 175.555 44.4343V45.4483C175.555 45.587 175.49 45.6563 175.36 45.6563H174.632ZM174.476 53.8333V46.8913H175.503V53.8333H174.476ZM183.744 53.9113C183.242 53.9113 182.8 53.8593 182.418 53.7553C182.046 53.6513 181.734 53.4693 181.482 53.2093C181.231 52.9493 181.045 52.5896 180.923 52.1303C180.802 51.6623 180.741 51.0686 180.741 50.3493C180.741 49.6213 180.802 49.0276 180.923 48.5683C181.045 48.1003 181.231 47.7406 181.482 47.4893C181.734 47.2293 182.046 47.0516 182.418 46.9563C182.8 46.8523 183.242 46.8003 183.744 46.8003C184.247 46.8003 184.685 46.8523 185.057 46.9563C185.439 47.0603 185.755 47.2423 186.006 47.5023C186.258 47.7536 186.444 48.1133 186.565 48.5813C186.695 49.0406 186.76 49.63 186.76 50.3493C186.76 51.0773 186.695 51.6753 186.565 52.1433C186.444 52.6026 186.258 52.9623 186.006 53.2223C185.764 53.4736 185.452 53.6513 185.07 53.7553C184.689 53.8593 184.247 53.9113 183.744 53.9113ZM183.744 53.0663C184.065 53.0663 184.347 53.036 184.589 52.9753C184.841 52.9146 185.049 52.7933 185.213 52.6113C185.378 52.4293 185.504 52.1563 185.59 51.7923C185.677 51.4283 185.72 50.9473 185.72 50.3493C185.72 49.7426 185.677 49.2616 185.59 48.9063C185.504 48.551 185.378 48.2823 185.213 48.1003C185.049 47.9183 184.841 47.797 184.589 47.7363C184.347 47.6756 184.065 47.6453 183.744 47.6453C183.415 47.6453 183.129 47.6756 182.886 47.7363C182.644 47.797 182.44 47.9183 182.275 48.1003C182.111 48.2823 181.985 48.551 181.898 48.9063C181.812 49.2616 181.768 49.7426 181.768 50.3493C181.768 50.9473 181.812 51.4283 181.898 51.7923C181.985 52.1563 182.111 52.4293 182.275 52.6113C182.44 52.7933 182.644 52.9146 182.886 52.9753C183.129 53.036 183.415 53.0663 183.744 53.0663ZM190.74 53.9113C190.168 53.9113 189.696 53.79 189.323 53.5473C188.959 53.296 188.686 52.9146 188.504 52.4033C188.331 51.8833 188.244 51.2203 188.244 50.4143C188.244 49.5563 188.331 48.863 188.504 48.3343C188.678 47.797 188.955 47.407 189.336 47.1643C189.718 46.9216 190.229 46.8003 190.87 46.8003C191.26 46.8003 191.642 46.8436 192.014 46.9303C192.387 47.017 192.716 47.1123 193.002 47.2163V43.9143H194.029V53.8333H193.197L193.002 53.1313C192.872 53.244 192.677 53.361 192.417 53.4823C192.166 53.6036 191.889 53.7076 191.585 53.7943C191.291 53.8723 191.009 53.9113 190.74 53.9113ZM191.039 53.0663C191.438 53.0663 191.798 53.0056 192.118 52.8843C192.448 52.7543 192.742 52.62 193.002 52.4813V47.9443C192.69 47.849 192.391 47.771 192.105 47.7103C191.819 47.641 191.499 47.6063 191.143 47.6063C190.701 47.6063 190.342 47.6886 190.064 47.8533C189.787 48.018 189.583 48.304 189.453 48.7113C189.332 49.11 189.271 49.6646 189.271 50.3753C189.271 51.0166 189.328 51.5366 189.44 51.9353C189.562 52.334 189.752 52.6243 190.012 52.8063C190.272 52.9796 190.615 53.0663 191.039 53.0663ZM199.473 53.8333V46.8913H200.279L200.5 47.6583C200.846 47.4156 201.232 47.2076 201.657 47.0343C202.09 46.861 202.571 46.7743 203.1 46.7743C203.533 46.7743 203.901 46.874 204.205 47.0733C204.517 47.264 204.751 47.5066 204.907 47.8013C205.123 47.6453 205.383 47.4893 205.687 47.3333C205.999 47.1773 206.328 47.0473 206.675 46.9433C207.03 46.8306 207.372 46.7743 207.702 46.7743C208.204 46.7743 208.616 46.8826 208.937 47.0993C209.257 47.3073 209.491 47.5933 209.639 47.9573C209.795 48.3126 209.873 48.7113 209.873 49.1533V53.8333H208.846V49.2313C208.846 48.9366 208.785 48.6766 208.664 48.4513C208.551 48.2173 208.386 48.0353 208.17 47.9053C207.953 47.7753 207.689 47.7103 207.377 47.7103C206.987 47.7103 206.588 47.784 206.181 47.9313C205.773 48.0786 205.396 48.2563 205.05 48.4643C205.093 48.5943 205.123 48.7243 205.141 48.8543C205.167 48.9756 205.18 49.1056 205.18 49.2443V53.8333H204.153V49.2313C204.153 48.9366 204.092 48.6766 203.971 48.4513C203.858 48.2173 203.693 48.0353 203.477 47.9053C203.269 47.7753 203.009 47.7103 202.697 47.7103C202.411 47.7103 202.142 47.7406 201.891 47.8013C201.648 47.8533 201.414 47.9313 201.189 48.0353C200.972 48.1306 200.742 48.2476 200.5 48.3863V53.8333H199.473ZM214.452 53.9113C213.724 53.9113 213.148 53.803 212.723 53.5863C212.307 53.3696 212.008 53.0013 211.826 52.4813C211.644 51.9613 211.553 51.2506 211.553 50.3493C211.553 49.4306 211.644 48.7156 211.826 48.2043C212.017 47.6843 212.324 47.3203 212.749 47.1123C213.174 46.9043 213.746 46.8003 214.465 46.8003C215.08 46.8003 215.579 46.8696 215.96 47.0083C216.35 47.147 216.636 47.3853 216.818 47.7233C217.009 48.0526 217.104 48.512 217.104 49.1013C217.104 49.5086 217.022 49.838 216.857 50.0893C216.701 50.332 216.471 50.5096 216.168 50.6223C215.873 50.7263 215.522 50.7783 215.115 50.7783H212.58C212.589 51.3416 212.649 51.7966 212.762 52.1433C212.875 52.4813 213.078 52.7283 213.373 52.8843C213.676 53.0316 214.118 53.1053 214.699 53.1053H216.935V53.7293C216.536 53.7813 216.146 53.8246 215.765 53.8593C215.384 53.894 214.946 53.9113 214.452 53.9113ZM212.567 50.1023H215.037C215.427 50.1023 215.713 50.033 215.895 49.8943C216.086 49.747 216.181 49.487 216.181 49.1143C216.181 48.7156 216.12 48.408 215.999 48.1913C215.886 47.966 215.704 47.81 215.453 47.7233C215.21 47.628 214.881 47.5803 214.465 47.5803C213.98 47.5803 213.598 47.654 213.321 47.8013C213.044 47.94 212.849 48.1913 212.736 48.5553C212.623 48.9193 212.567 49.435 212.567 50.1023ZM221.082 53.9113C220.51 53.9113 220.038 53.79 219.665 53.5473C219.301 53.296 219.028 52.9146 218.846 52.4033C218.673 51.8833 218.586 51.2203 218.586 50.4143C218.586 49.5563 218.673 48.863 218.846 48.3343C219.019 47.797 219.297 47.407 219.678 47.1643C220.059 46.9216 220.571 46.8003 221.212 46.8003C221.602 46.8003 221.983 46.8436 222.356 46.9303C222.729 47.017 223.058 47.1123 223.344 47.2163V43.9143H224.371V53.8333H223.539L223.344 53.1313C223.214 53.244 223.019 53.361 222.759 53.4823C222.508 53.6036 222.23 53.7076 221.927 53.7943C221.632 53.8723 221.351 53.9113 221.082 53.9113ZM221.381 53.0663C221.78 53.0663 222.139 53.0056 222.46 52.8843C222.789 52.7543 223.084 52.62 223.344 52.4813V47.9443C223.032 47.849 222.733 47.771 222.447 47.7103C222.161 47.641 221.84 47.6063 221.485 47.6063C221.043 47.6063 220.683 47.6886 220.406 47.8533C220.129 48.018 219.925 48.304 219.795 48.7113C219.674 49.11 219.613 49.6646 219.613 50.3753C219.613 51.0166 219.669 51.5366 219.782 51.9353C219.903 52.334 220.094 52.6243 220.354 52.8063C220.614 52.9796 220.956 53.0663 221.381 53.0663ZM227.663 53.9113C227.151 53.9113 226.731 53.7596 226.402 53.4563C226.072 53.153 225.908 52.724 225.908 52.1693V51.6753C225.908 51.1293 226.085 50.6873 226.441 50.3493C226.805 50.0113 227.351 49.8423 228.079 49.8423H230.432V48.9843C230.432 48.6983 230.38 48.4556 230.276 48.2563C230.18 48.0483 230.003 47.888 229.743 47.7753C229.491 47.6626 229.123 47.6063 228.638 47.6063H226.48V46.9953C226.783 46.9433 227.134 46.8956 227.533 46.8523C227.94 46.809 228.417 46.7873 228.963 46.7873C229.526 46.7786 229.994 46.848 230.367 46.9953C230.739 47.1426 231.012 47.3766 231.186 47.6973C231.368 48.0093 231.459 48.421 231.459 48.9323V53.8333H230.666L230.471 53.0403C230.436 53.075 230.328 53.1356 230.146 53.2223C229.972 53.309 229.747 53.4086 229.47 53.5213C229.201 53.6253 228.906 53.7163 228.586 53.7943C228.274 53.8723 227.966 53.9113 227.663 53.9113ZM228.092 53.1443C228.248 53.153 228.425 53.1356 228.625 53.0923C228.824 53.049 229.028 53.0013 229.236 52.9493C229.444 52.8886 229.634 52.828 229.808 52.7673C229.99 52.7066 230.137 52.6546 230.25 52.6113C230.362 52.568 230.423 52.5463 230.432 52.5463V50.3623L228.313 50.4533C227.819 50.4706 227.463 50.592 227.247 50.8173C227.039 51.0426 226.935 51.333 226.935 51.6883V52.0003C226.935 52.2776 226.991 52.503 227.104 52.6763C227.225 52.841 227.372 52.958 227.546 53.0273C227.728 53.0966 227.91 53.1356 228.092 53.1443Z" fill="#F79721"/>
<path d="M59.5439 19.0787L37.5 4.90683L15.4561 19.0787L37.5 33.5818L59.5439 19.0787Z" fill="#262626" stroke="white" stroke-width="2" stroke-miterlimit="10"/>
<path d="M51.1824 10.0207L37.5 1.22153L23.8176 10.0207L37.5 19.0166L51.1824 10.0207Z" fill="#F79721" stroke="white" stroke-width="2" stroke-miterlimit="10"/>
<path d="M37.5 35.5383L0 10.5383V53.323L37.5 75L75 53.323V10.5383L37.5 35.5383Z" fill="#F79721"/>
</svg>
