<svg width="36" height="35" viewBox="0 0 36 35" fill="none" xmlns="http://www.w3.org/2000/svg">
<path d="M25.8646 10.8908V12.7215C25.8646 13.15 25.5169 13.4991 25.0885 13.4991H23.2578C22.8264 13.4991 22.4816 13.15 22.4816 12.7215V10.8908C22.4816 10.4624 22.8264 10.1147 23.2578 10.1147H25.0885C25.5169 10.1147 25.8646 10.4624 25.8646 10.8908ZM18.2908 21.5706C20.4345 21.5706 22.1758 19.8323 22.1758 17.6871C22.1758 15.5419 20.4345 13.8064 18.2908 13.8064C16.1456 13.8064 14.4087 15.5433 14.4087 17.6885C14.4087 19.8337 16.1456 21.5706 18.2908 21.5706ZM24.4378 16.8229C24.4782 17.1057 24.5042 17.3942 24.5042 17.6871C24.5042 21.1205 21.7228 23.9019 18.2908 23.9019C14.8588 23.9019 12.0774 21.1205 12.0774 17.6885C12.0774 17.3942 12.1034 17.1071 12.1438 16.8244C12.1827 16.5445 12.239 16.2718 12.314 16.0064H10.717V24.4876C10.717 24.9161 11.0647 25.2637 11.4931 25.2637H25.0885C25.5169 25.2637 25.8646 24.9161 25.8646 24.4876V16.0064H24.2676C24.3397 16.2718 24.3974 16.5445 24.4378 16.8229ZM35.6023 17.6885C35.6023 27.2488 27.8511 35.0001 18.2908 35.0001C8.73049 35.0001 0.979248 27.2488 0.979248 17.6885C0.979248 8.1282 8.73049 0.376953 18.2908 0.376953C27.8511 0.376953 35.6023 8.1282 35.6023 17.6885ZM28.3892 9.91994C28.3892 8.63312 27.3462 7.5901 26.0594 7.5901H10.5222C9.23541 7.5901 8.19239 8.63312 8.19239 9.91994V25.4556C8.19239 26.7439 9.23541 27.7869 10.5222 27.7869H26.0594C27.3462 27.7869 28.3892 26.7439 28.3892 25.4556V9.91994Z" fill="white"/>
</svg>
