<svg width="35" height="35" viewBox="0 0 35 35" fill="none" xmlns="http://www.w3.org/2000/svg">
<path d="M17.3116 0C7.75125 0 0 7.75125 0 17.3116C0 26.8719 7.75125 34.6231 17.3116 34.6231C26.8719 34.6231 34.6231 26.8719 34.6231 17.3116C34.6231 7.75125 26.8719 0 17.3116 0ZM23.7183 24.3689C20.6859 24.5766 13.9315 24.5766 10.9034 24.3689C7.61997 24.1438 7.23767 22.5368 7.21315 17.3116C7.23767 12.0762 7.6243 10.4793 10.9034 10.2542C13.9315 10.0465 20.6873 10.0465 23.7183 10.2542C27.0031 10.4793 27.384 12.0863 27.41 17.3116C27.384 22.5469 26.9988 24.1438 23.7183 24.3689ZM14.4263 13.9329L21.5197 17.3058L14.4263 20.6902V13.9329Z" fill="white"/>
</svg>
